<?xml version="1.0" standalone="no"?>
<!DOCTYPE svg PUBLIC "-//W3C//DTD SVG 20010904//EN"
 "http://www.w3.org/TR/2001/REC-SVG-20010904/DTD/svg10.dtd">
<svg version="1.0" xmlns="http://www.w3.org/2000/svg"
 width="260.000000pt" height="260.000000pt" viewBox="0 0 260.000000 260.000000"
 preserveAspectRatio="xMidYMid meet">
<metadata>
Created by potrace 1.14, written by Peter Selinger 2001-2017
</metadata>
<g transform="translate(0.000000,260.000000) scale(0.100000,-0.100000)"
fill="#000000" stroke="none">
<path d="M315 1305 l0 -1005 222 0 c191 0 223 2 224 15 0 8 0 40 0 70 0 30 0
62 0 70 -1 12 -21 15 -121 15 l-120 0 0 835 0 835 120 0 c127 0 122 -2 122 50
0 11 0 43 -1 70 l-1 50 -223 0 -222 0 0 -1005z"/>
<path d="M1845 2298 c-2 -7 -3 -44 -2 -83 l2 -70 120 -5 120 -5 0 -830 0 -830
-121 -3 -120 -3 -1 -84 -1 -85 224 0 224 0 0 1005 0 1005 -220 0 c-168 0 -222
-3 -225 -12z"/>
<path d="M1160 1844 c-126 -27 -237 -100 -280 -184 -62 -121 -30 -283 69 -355
68 -50 135 -72 320 -106 238 -43 294 -74 293 -163 -1 -49 -25 -83 -83 -116
-39 -22 -57 -25 -165 -27 -142 -2 -236 18 -347 73 -55 28 -72 33 -78 22 -5 -7
-25 -43 -44 -79 l-34 -67 37 -24 c96 -63 269 -106 427 -106 188 -1 315 39 405
127 70 69 90 121 86 224 -3 109 -46 176 -145 226 -41 21 -117 48 -156 55 -66
13 -143 27 -170 32 -132 24 -198 52 -225 97 -56 92 15 182 160 205 124 19 308
-12 385 -64 11 -8 23 -14 26 -14 11 0 90 150 85 159 -11 16 -99 52 -180 73
-101 26 -291 32 -386 12z"/>
</g>
</svg>
