<svg width="542.432" height="99.268" viewBox="0 0 542.432 99.268" xmlns="http://www.w3.org/2000/svg"><g id="svgGroup" stroke-linecap="round" fill-rule="evenodd" font-size="9pt" stroke="#000" stroke-width="0" fill="#ff6a3e" style="stroke:#000;stroke-width:0;fill:#ff6a3e"><path d="M 69.531 45.947 L 55.42 45.947 A 7.69 7.69 0 0 0 55.033 43.459 A 6.537 6.537 0 0 0 53.467 40.942 A 5.943 5.943 0 0 0 51.246 39.556 Q 50.301 39.21 49.13 39.066 A 14.545 14.545 0 0 0 47.363 38.965 A 12.675 12.675 0 0 0 45.221 39.134 Q 43.166 39.487 41.846 40.576 A 5.413 5.413 0 0 0 40.444 42.28 A 5.177 5.177 0 0 0 39.893 44.678 A 4.148 4.148 0 0 0 41.402 47.928 A 6.248 6.248 0 0 0 42.114 48.462 A 10.149 10.149 0 0 0 43.605 49.241 Q 45.819 50.198 49.609 50.952 Q 54.883 52.002 58.496 53.32 A 22.738 22.738 0 0 1 63.647 55.923 Q 69.395 59.911 69.664 66.841 A 17.729 17.729 0 0 1 69.678 67.529 Q 69.678 74.756 63.477 79.224 A 22.58 22.58 0 0 1 55.613 82.774 Q 52.487 83.548 48.833 83.669 A 41.473 41.473 0 0 1 47.461 83.691 Q 40.82 83.691 35.669 81.323 A 21.721 21.721 0 0 1 30.823 78.311 A 18.277 18.277 0 0 1 27.588 74.829 A 15.661 15.661 0 0 1 25.045 69.308 A 14.82 14.82 0 0 1 24.658 65.918 L 38.037 65.918 A 9.178 9.178 0 0 0 38.503 68.442 A 6.816 6.816 0 0 0 40.82 71.68 A 9.017 9.017 0 0 0 44.011 73.227 Q 45.265 73.568 46.743 73.653 A 17.557 17.557 0 0 0 47.754 73.682 A 17.134 17.134 0 0 0 49.986 73.546 Q 52.423 73.225 53.882 72.144 Q 55.955 70.607 55.957 68.121 A 5.953 5.953 0 0 0 55.957 68.115 A 4.286 4.286 0 0 0 54.337 64.695 A 6.65 6.65 0 0 0 53.394 64.038 Q 50.83 62.549 45.166 61.377 Q 26.318 57.422 26.318 45.361 Q 26.318 38.33 32.153 33.618 A 20.446 20.446 0 0 1 40.348 29.684 Q 43.369 28.958 46.906 28.91 A 37.121 37.121 0 0 1 47.412 28.906 A 34.692 34.692 0 0 1 54.054 29.505 Q 59.614 30.59 63.501 33.643 A 15.96 15.96 0 0 1 67.728 38.516 Q 69.503 41.757 69.531 45.818 A 18.903 18.903 0 0 1 69.531 45.947 Z M 521.338 10.889 L 521.338 0 L 542.432 0 L 542.432 99.268 L 521.338 99.268 L 521.338 88.379 L 528.32 88.379 L 528.32 10.889 L 521.338 10.889 Z M 21.094 0 L 21.094 10.889 L 14.16 10.889 L 14.16 88.379 L 21.094 88.379 L 21.094 99.268 L 0 99.268 L 0 0 L 21.094 0 Z M 421.973 64.453 L 435.205 64.453 A 18.101 18.101 0 0 1 432.275 74.292 Q 429.395 78.76 424.39 81.226 A 24.2 24.2 0 0 1 415.012 83.643 A 28.701 28.701 0 0 1 413.33 83.691 A 28.686 28.686 0 0 1 405.581 82.7 A 21.059 21.059 0 0 1 395.459 76.489 Q 389.453 69.878 388.96 58.638 A 46.723 46.723 0 0 1 388.916 56.592 L 388.916 55.664 Q 388.916 43.457 395.41 36.182 A 21.344 21.344 0 0 1 408.488 29.258 A 30.827 30.827 0 0 1 413.232 28.906 A 28.262 28.262 0 0 1 420.114 29.699 A 19.956 19.956 0 0 1 429.126 34.546 A 19.032 19.032 0 0 1 434.942 46.041 A 26.589 26.589 0 0 1 435.205 49.561 L 421.973 49.561 A 11.571 11.571 0 0 0 421.507 46.482 A 8.818 8.818 0 0 0 419.434 42.896 A 8.141 8.141 0 0 0 414.348 40.411 A 11.329 11.329 0 0 0 412.988 40.332 A 10.745 10.745 0 0 0 409.883 40.756 A 7.983 7.983 0 0 0 405.542 43.921 Q 403.296 47.126 403.056 53.893 A 47.178 47.178 0 0 0 403.027 55.566 L 403.027 57.031 Q 403.027 63.899 404.794 67.511 A 9.271 9.271 0 0 0 405.518 68.75 A 8.09 8.09 0 0 0 411.13 72.167 A 12.454 12.454 0 0 0 413.086 72.314 Q 416.992 72.314 419.434 70.166 A 7.358 7.358 0 0 0 421.923 65.216 A 10.051 10.051 0 0 0 421.973 64.453 Z M 501.025 34.668 L 501.025 7.715 L 515.186 7.715 L 515.186 82.715 L 502.441 82.715 L 501.758 77.1 A 17.751 17.751 0 0 1 496.253 81.776 A 16.889 16.889 0 0 1 488.184 83.691 A 19.092 19.092 0 0 1 480.489 82.183 Q 476.449 80.426 473.436 76.623 A 22.939 22.939 0 0 1 473.218 76.343 Q 468.61 70.339 467.767 60.504 A 53.849 53.849 0 0 1 467.578 55.908 A 44.797 44.797 0 0 1 468.233 48.009 Q 469.483 41.037 473.12 36.23 A 17.656 17.656 0 0 1 485.94 29.021 A 23.406 23.406 0 0 1 488.281 28.906 A 16.834 16.834 0 0 1 495.523 30.438 A 16.717 16.717 0 0 1 501.025 34.668 Z M 355.859 82.715 L 341.602 82.715 Q 340.771 81.095 340.329 78.804 A 22.86 22.86 0 0 1 340.186 77.979 A 16.879 16.879 0 0 1 327.869 83.669 A 22.758 22.758 0 0 1 326.855 83.691 A 22.071 22.071 0 0 1 320.778 82.892 A 17.343 17.343 0 0 1 313.989 79.199 A 14.366 14.366 0 0 1 308.909 68.769 A 17.717 17.717 0 0 1 308.887 67.871 A 18.007 18.007 0 0 1 309.726 62.23 A 14.265 14.265 0 0 1 315.112 54.98 A 20.938 20.938 0 0 1 321.085 52.064 Q 323.907 51.17 327.342 50.767 A 51.506 51.506 0 0 1 333.105 50.439 L 339.6 50.439 L 339.6 47.412 A 11.596 11.596 0 0 0 339.357 44.969 Q 339.005 43.337 338.144 42.102 A 7.007 7.007 0 0 0 337.72 41.553 A 5.807 5.807 0 0 0 335.109 39.838 Q 334.142 39.51 332.955 39.405 A 13.253 13.253 0 0 0 331.787 39.355 A 12.01 12.01 0 0 0 329.566 39.548 Q 328.301 39.787 327.301 40.319 A 6.304 6.304 0 0 0 326.196 41.064 A 5.589 5.589 0 0 0 324.219 44.852 A 7.951 7.951 0 0 0 324.17 45.752 L 310.059 45.752 A 14.168 14.168 0 0 1 312.869 37.286 A 17.271 17.271 0 0 1 312.891 37.256 Q 315.723 33.35 320.898 31.128 A 27.365 27.365 0 0 1 328.615 29.123 A 34.228 34.228 0 0 1 332.52 28.906 A 31.479 31.479 0 0 1 338.888 29.513 Q 344.302 30.631 348.022 33.813 A 16.009 16.009 0 0 1 353.434 43.598 A 23.615 23.615 0 0 1 353.76 47.607 L 353.76 70.508 A 45.237 45.237 0 0 0 353.946 74.448 Q 354.385 79.112 355.859 81.885 L 355.859 82.715 Z M 179.785 57.568 L 179.785 56.201 A 35.333 35.333 0 0 1 180.653 48.22 A 28.996 28.996 0 0 1 182.861 41.968 A 23.362 23.362 0 0 1 188.077 34.905 A 22.008 22.008 0 0 1 191.577 32.3 A 23.84 23.84 0 0 1 202.197 28.991 A 29.273 29.273 0 0 1 204.443 28.906 Q 215.283 28.906 221.509 35.742 Q 226.9 41.662 227.623 51.866 A 46.184 46.184 0 0 1 227.734 55.127 L 227.734 60.889 L 194.092 60.889 Q 194.775 66.064 198.218 69.189 Q 201.66 72.314 206.934 72.314 A 18.014 18.014 0 0 0 212.654 71.449 A 14.591 14.591 0 0 0 219.678 66.406 L 226.611 74.17 Q 223.438 78.662 218.018 81.177 A 27.302 27.302 0 0 1 208.635 83.588 A 32.808 32.808 0 0 1 206.006 83.691 Q 194.385 83.691 187.085 76.563 A 23.807 23.807 0 0 1 180.186 62.87 A 33.732 33.732 0 0 1 179.785 57.568 Z M 141.748 29.883 L 151.563 65.479 L 161.377 29.883 L 176.123 29.883 L 158.301 82.715 L 144.824 82.715 L 127.002 29.883 L 141.748 29.883 Z M 120.166 7.715 L 120.166 82.715 L 106.006 82.715 L 106.006 7.715 L 120.166 7.715 Z M 379.492 7.715 L 379.492 82.715 L 365.332 82.715 L 365.332 7.715 L 379.492 7.715 Z M 265.625 29.541 L 265.43 43.115 A 49.55 49.55 0 0 0 263.365 42.877 Q 262.237 42.772 261.236 42.74 A 27.049 27.049 0 0 0 260.352 42.725 A 18.162 18.162 0 0 0 256.589 43.085 Q 254.451 43.539 252.894 44.564 A 8.375 8.375 0 0 0 249.854 48.145 L 249.854 82.715 L 235.742 82.715 L 235.742 29.883 L 249.072 29.883 L 249.463 36.182 A 17.101 17.101 0 0 1 252.52 32.267 A 12.303 12.303 0 0 1 261.23 28.906 A 15.352 15.352 0 0 1 264.448 29.234 A 13.591 13.591 0 0 1 265.625 29.541 Z M 93.652 29.883 L 93.652 82.715 L 79.492 82.715 L 79.492 29.883 L 93.652 29.883 Z M 458.154 29.883 L 458.154 82.715 L 443.994 82.715 L 443.994 29.883 L 458.154 29.883 Z M 501.025 66.748 L 501.025 45.898 A 9.887 9.887 0 0 0 498.457 42.496 Q 495.915 40.381 491.895 40.381 Q 482.16 40.381 481.711 55.443 A 50.083 50.083 0 0 0 481.689 56.934 A 34.172 34.172 0 0 0 481.936 61.184 Q 482.195 63.243 482.725 64.937 A 13.491 13.491 0 0 0 484.277 68.311 A 8.596 8.596 0 0 0 487.276 71.182 Q 488.912 72.096 491.006 72.239 A 11.617 11.617 0 0 0 491.797 72.266 Q 498.13 72.266 500.849 67.097 A 12.48 12.48 0 0 0 501.025 66.748 Z M 299.658 46.582 L 299.658 57.959 L 272.168 57.959 L 272.168 46.582 L 299.658 46.582 Z M 194.238 51.27 L 213.867 51.27 L 213.867 50.146 Q 213.792 46.535 212.326 44.184 A 8.012 8.012 0 0 0 211.328 42.896 Q 208.973 40.422 204.708 40.335 A 15.37 15.37 0 0 0 204.395 40.332 A 10.114 10.114 0 0 0 201.134 40.836 A 8.463 8.463 0 0 0 197.583 43.164 Q 195.404 45.526 194.533 49.586 A 23.32 23.32 0 0 0 194.238 51.27 Z M 339.6 67.773 L 339.6 58.691 L 334.326 58.691 A 22.914 22.914 0 0 0 330.431 58.994 Q 323.592 60.179 323.047 66.016 L 322.998 66.846 Q 322.998 69.482 324.854 71.191 A 6.19 6.19 0 0 0 327.539 72.618 Q 328.622 72.9 329.932 72.9 A 12.154 12.154 0 0 0 335.693 71.509 A 10.115 10.115 0 0 0 338.034 69.835 A 8.494 8.494 0 0 0 339.6 67.773 Z M 79.091 13.586 A 7.747 7.747 0 0 0 78.662 16.211 A 9.169 9.169 0 0 0 78.675 16.707 A 6.826 6.826 0 0 0 80.835 21.484 A 7.247 7.247 0 0 0 84.095 23.247 A 10.093 10.093 0 0 0 86.572 23.535 A 10.504 10.504 0 0 0 88.566 23.354 A 7.359 7.359 0 0 0 92.31 21.484 A 6.687 6.687 0 0 0 94.067 18.806 A 7.793 7.793 0 0 0 94.482 16.211 A 9.131 9.131 0 0 0 94.477 15.891 A 6.846 6.846 0 0 0 92.334 10.986 A 7.154 7.154 0 0 0 89.028 9.212 A 10.314 10.314 0 0 0 86.572 8.936 Q 85.256 8.936 84.139 9.2 A 7.067 7.067 0 0 0 80.786 10.986 A 6.726 6.726 0 0 0 79.091 13.586 Z M 443.593 13.586 A 7.747 7.747 0 0 0 443.164 16.211 A 9.169 9.169 0 0 0 443.177 16.707 A 6.826 6.826 0 0 0 445.337 21.484 A 7.247 7.247 0 0 0 448.597 23.247 A 10.093 10.093 0 0 0 451.074 23.535 A 10.504 10.504 0 0 0 453.068 23.354 A 7.359 7.359 0 0 0 456.812 21.484 A 6.687 6.687 0 0 0 458.568 18.806 A 7.793 7.793 0 0 0 458.984 16.211 A 9.131 9.131 0 0 0 458.979 15.891 A 6.846 6.846 0 0 0 456.836 10.986 A 7.154 7.154 0 0 0 453.53 9.212 A 10.314 10.314 0 0 0 451.074 8.936 Q 449.758 8.936 448.641 9.2 A 7.067 7.067 0 0 0 445.288 10.986 A 6.726 6.726 0 0 0 443.593 13.586 Z"/></g></svg>