<svg width="210" height="28" viewBox="0 0 490.479 75.979" xmlns="http://www.w3.org/2000/svg"><g id="svgGroup" stroke-linecap="round" fill-rule="evenodd" font-size="9pt" stroke="#000" stroke-width="0.25mm" fill="#000" style="stroke:#000;stroke-width:0.25mm;fill:#000"><path d="M 53.076 24.658 L 40.771 24.658 A 14.268 14.268 0 0 0 40.321 20.97 A 10.139 10.139 0 0 0 37.28 15.942 A 11.348 11.348 0 0 0 32.96 13.556 Q 31.263 13.031 29.222 12.867 A 24.081 24.081 0 0 0 27.295 12.793 Q 23.094 12.793 20.198 14.039 A 10.558 10.558 0 0 0 17.896 15.381 A 8.394 8.394 0 0 0 14.597 21.548 A 11.93 11.93 0 0 0 14.551 22.607 Q 14.551 26.514 18.164 29.126 A 19.502 19.502 0 0 0 20.567 30.584 Q 23.281 31.999 27.414 33.369 A 89.005 89.005 0 0 0 30.078 34.204 Q 36.052 35.979 40.332 38.108 A 36.043 36.043 0 0 1 43.408 39.819 A 26.643 26.643 0 0 1 47.051 42.531 Q 49.061 44.331 50.371 46.372 A 16.094 16.094 0 0 1 50.781 47.046 A 17.482 17.482 0 0 1 52.89 53.27 A 22.753 22.753 0 0 1 53.125 56.592 Q 53.125 65.479 46.313 70.728 A 23.521 23.521 0 0 1 38.287 74.664 Q 34.966 75.607 31.018 75.873 A 47.545 47.545 0 0 1 27.832 75.977 A 36.422 36.422 0 0 1 18.243 74.746 A 32.391 32.391 0 0 1 13.647 73.12 A 26.829 26.829 0 0 1 7.898 69.72 A 21.709 21.709 0 0 1 3.589 65.234 Q 0 60.205 0 53.516 L 12.354 53.516 Q 12.354 59.57 16.357 62.891 A 13.09 13.09 0 0 0 20.785 65.246 Q 22.672 65.849 24.953 66.075 A 29.205 29.205 0 0 0 27.832 66.211 A 25.437 25.437 0 0 0 31.377 65.981 Q 33.188 65.725 34.652 65.186 A 10.122 10.122 0 0 0 37.524 63.599 A 8.324 8.324 0 0 0 40.738 57.545 A 10.734 10.734 0 0 0 40.771 56.689 Q 40.771 52.002 37.476 49.463 A 16.261 16.261 0 0 0 35.24 48.051 Q 31.796 46.206 25.586 44.336 A 84.705 84.705 0 0 1 20.093 42.488 Q 17.443 41.486 15.245 40.41 A 36.996 36.996 0 0 1 11.914 38.574 A 24.893 24.893 0 0 1 6.79 34.397 A 16.78 16.78 0 0 1 2.197 22.656 A 17.064 17.064 0 0 1 7.755 9.75 A 22.331 22.331 0 0 1 9.204 8.496 Q 16.036 3.068 26.838 2.933 A 44.3 44.3 0 0 1 27.393 2.93 A 34.414 34.414 0 0 1 34.721 3.679 A 27.592 27.592 0 0 1 40.625 5.664 A 22.396 22.396 0 0 1 47.437 10.52 A 21.131 21.131 0 0 1 49.756 13.452 Q 53.076 18.506 53.076 24.658 Z M 323.193 75 L 317.383 58.447 L 289.844 58.447 L 284.082 75 L 271.24 75 L 298.096 3.906 L 309.18 3.906 L 336.084 75 L 323.193 75 Z M 400.732 57.52 L 411.914 57.52 Q 411.719 62.451 408.838 66.724 A 19.932 19.932 0 0 1 401.932 73.004 A 23.659 23.659 0 0 1 401.025 73.486 Q 396.094 75.977 390.381 75.977 A 27.669 27.669 0 0 1 382.713 74.967 A 20.89 20.89 0 0 1 372.803 68.799 A 23.85 23.85 0 0 1 367.552 58.994 Q 366.542 55.349 366.352 51.013 A 46.714 46.714 0 0 1 366.309 48.975 L 366.309 47.754 A 36.612 36.612 0 0 1 367.178 39.545 Q 368.628 33.234 372.502 28.731 A 23.447 23.447 0 0 1 372.754 28.442 A 21.176 21.176 0 0 1 386.003 21.491 A 30.227 30.227 0 0 1 390.332 21.191 A 26.389 26.389 0 0 1 397.287 22.063 A 19.847 19.847 0 0 1 405.688 26.685 A 19.135 19.135 0 0 1 411.737 38.8 A 25.92 25.92 0 0 1 411.914 41.113 L 400.732 41.113 A 12.263 12.263 0 0 0 399.999 37.329 A 10.301 10.301 0 0 0 397.632 33.643 A 9.793 9.793 0 0 0 391.071 30.739 A 13.118 13.118 0 0 0 390.234 30.713 A 12.672 12.672 0 0 0 386.359 31.276 A 9.912 9.912 0 0 0 381.348 34.888 A 13.382 13.382 0 0 0 379.436 38.626 Q 378.204 42.249 378.174 47.559 L 378.174 49.463 A 38.283 38.283 0 0 0 378.419 53.951 Q 379.046 59.245 381.274 62.28 Q 384.375 66.504 390.234 66.504 A 12.534 12.534 0 0 0 393.773 66.026 A 9.945 9.945 0 0 0 397.607 63.916 A 9.224 9.224 0 0 0 399.971 60.771 A 9.001 9.001 0 0 0 400.732 57.52 Z M 478.613 27.051 L 478.613 0 L 490.479 0 L 490.479 75 L 479.736 75 L 479.15 69.531 Q 473.828 75.977 464.941 75.977 Q 455.664 75.977 449.927 68.506 A 25.804 25.804 0 0 1 445.635 59.732 Q 444.189 54.639 444.189 48.193 A 42.774 42.774 0 0 1 444.921 40.041 Q 446.225 33.328 449.854 28.589 A 17.923 17.923 0 0 1 462.86 21.293 A 22.891 22.891 0 0 1 465.039 21.191 A 19.536 19.536 0 0 1 471.552 22.234 A 16.696 16.696 0 0 1 478.613 27.051 Z M 160.693 49.951 L 160.693 48.486 A 35.138 35.138 0 0 1 161.555 40.557 A 28.761 28.761 0 0 1 163.745 34.351 A 24.03 24.03 0 0 1 168.959 27.23 A 22.547 22.547 0 0 1 172.314 24.658 A 22.655 22.655 0 0 1 184.619 21.191 A 27.141 27.141 0 0 1 191.458 22.005 A 18.839 18.839 0 0 1 201.294 28.076 Q 206.241 33.865 207.029 43.693 A 48.424 48.424 0 0 1 207.178 47.559 L 207.178 52.344 L 172.656 52.344 A 20.067 20.067 0 0 0 173.55 56.953 A 14.162 14.162 0 0 0 177.026 62.695 A 12.964 12.964 0 0 0 185.907 66.487 A 17.149 17.149 0 0 0 186.67 66.504 A 15.867 15.867 0 0 0 198.751 61.321 A 20.296 20.296 0 0 0 199.951 59.912 L 206.348 66.016 Q 203.174 70.752 197.876 73.364 Q 192.578 75.977 185.986 75.977 A 29.112 29.112 0 0 1 177.527 74.804 A 22.906 22.906 0 0 1 167.7 68.872 A 23.847 23.847 0 0 1 161.217 56.061 A 34.105 34.105 0 0 1 160.693 49.951 Z M 121.191 22.168 L 132.52 59.961 L 143.701 22.168 L 155.957 22.168 L 137.646 75 L 127.344 75 L 108.887 22.168 L 121.191 22.168 Z M 100.977 0 L 100.977 75 L 89.111 75 L 89.111 0 L 100.977 0 Z M 355.615 0 L 355.615 75 L 343.75 75 L 343.75 0 L 355.615 0 Z M 244.092 21.875 L 244.043 33.008 Q 241.699 32.617 239.209 32.617 A 16.323 16.323 0 0 0 235.05 33.11 A 9.921 9.921 0 0 0 228.223 38.867 L 228.223 75 L 216.357 75 L 216.357 22.168 L 227.686 22.168 L 227.979 28.076 Q 232.27 21.2 239.873 21.191 A 17.013 17.013 0 0 1 239.893 21.191 Q 241.823 21.191 243.245 21.586 A 7.481 7.481 0 0 1 244.092 21.875 Z M 75.439 22.168 L 75.439 75 L 63.574 75 L 63.574 22.168 L 75.439 22.168 Z M 433.496 22.168 L 433.496 75 L 421.631 75 L 421.631 22.168 L 433.496 22.168 Z M 478.613 59.814 L 478.613 37.256 A 12.276 12.276 0 0 0 475.671 33.45 Q 473.233 31.385 469.737 30.998 A 15.169 15.169 0 0 0 468.066 30.908 A 11.553 11.553 0 0 0 463.986 31.598 Q 461.09 32.683 459.18 35.474 Q 456.184 39.851 456.06 48.469 A 52.274 52.274 0 0 0 456.055 49.219 A 34.036 34.036 0 0 0 456.357 53.908 Q 456.701 56.372 457.434 58.391 A 15.056 15.056 0 0 0 459.155 61.792 A 9.852 9.852 0 0 0 466.247 66.198 A 13.049 13.049 0 0 0 467.969 66.309 Q 474.498 66.309 477.881 61.079 A 15.287 15.287 0 0 0 478.613 59.814 Z M 303.613 18.994 L 293.311 48.486 L 313.916 48.486 L 303.613 18.994 Z M 172.852 43.652 L 195.459 43.652 L 195.459 42.773 Q 195.195 38.744 193.836 36.044 A 10.089 10.089 0 0 0 192.285 33.765 A 9.128 9.128 0 0 0 187.107 30.941 A 13.439 13.439 0 0 0 184.57 30.713 A 11.314 11.314 0 0 0 180.785 31.321 A 9.682 9.682 0 0 0 176.685 34.131 Q 173.682 37.549 172.852 43.652 Z M 63.195 6.169 A 7.081 7.081 0 0 0 62.842 8.447 A 8.007 8.007 0 0 0 62.852 8.861 A 6.063 6.063 0 0 0 64.575 12.915 A 5.28 5.28 0 0 0 65.412 13.614 Q 66.343 14.241 67.577 14.505 A 9.347 9.347 0 0 0 69.531 14.697 A 11.243 11.243 0 0 0 69.868 14.692 Q 72.847 14.603 74.512 12.915 A 5.917 5.917 0 0 0 75.89 10.749 A 6.738 6.738 0 0 0 76.27 8.447 A 8.12 8.12 0 0 0 76.254 7.943 A 6.141 6.141 0 0 0 74.512 3.906 A 5.408 5.408 0 0 0 73.846 3.325 Q 72.863 2.599 71.531 2.303 A 9.217 9.217 0 0 0 69.531 2.1 A 11.115 11.115 0 0 0 69.219 2.104 Q 68.14 2.134 67.236 2.377 A 5.614 5.614 0 0 0 64.575 3.906 A 6.014 6.014 0 0 0 63.195 6.169 Z M 421.251 6.169 A 7.081 7.081 0 0 0 420.898 8.447 A 8.007 8.007 0 0 0 420.909 8.861 A 6.063 6.063 0 0 0 422.632 12.915 A 5.28 5.28 0 0 0 423.469 13.614 Q 424.399 14.241 425.633 14.505 A 9.347 9.347 0 0 0 427.588 14.697 A 11.243 11.243 0 0 0 427.925 14.692 Q 430.904 14.603 432.568 12.915 A 5.917 5.917 0 0 0 433.946 10.749 A 6.738 6.738 0 0 0 434.326 8.447 A 8.12 8.12 0 0 0 434.311 7.943 A 6.141 6.141 0 0 0 432.568 3.906 A 5.408 5.408 0 0 0 431.903 3.325 Q 430.919 2.599 429.588 2.303 A 9.217 9.217 0 0 0 427.588 2.1 A 11.115 11.115 0 0 0 427.276 2.104 Q 426.197 2.134 425.292 2.377 A 5.614 5.614 0 0 0 422.632 3.906 A 6.014 6.014 0 0 0 421.251 6.169 Z" vector-effect="non-scaling-stroke"/></g></svg>